<svg width="95" height="95" viewBox="0 0 95 95" fill="none" xmlns="http://www.w3.org/2000/svg">
<path d="M64 32H79V47H64V32Z" fill="#E0463D"/>
<path d="M64 48H79V63H64V48Z" fill="#E0463D"/>
<path d="M80 48H95V63H80V48Z" fill="#E0463D"/>
<path d="M80 64H95V79H80V64Z" fill="#E0463D"/>
<path d="M64 80H79V95H64V80Z" fill="#416BEC"/>
<path d="M48 80H63V95H48V80Z" fill="#416BEC"/>
<path d="M32 80H47V95H32V80Z" fill="#416BEC"/>
<path d="M48 64H63V79H48V64Z" fill="#416BEC"/>
<path d="M16 0H31V15H16V0Z" fill="#EECD5C"/>
<path d="M16 16H31V31H16V16Z" fill="#EECD5C"/>
<path d="M16 32H31V47H16V32Z" fill="#EECD5C"/>
<path d="M32 32H47V47H32V32Z" fill="#EECD5C"/>
<path d="M0 32H15V47H0V32Z" fill="#EECD5C"/>
</svg>
